<svg width="655" height="235" viewBox="0 0 655 235" fill="none" xmlns="http://www.w3.org/2000/svg">
    <path fill-rule="evenodd" clip-rule="evenodd"
        d="M139.153 0.953684C138.124 0.347239 137.94 0.320871 128.474 0.162668C115.422 -0.0746364 55.5688 -0.0482692 33.1567 0.215403C14.4359 0.452707 0.672276 0.795481 0.408605 1.08552C0.0394639 1.42829 -0.092372 58.3023 0.0658311 143.099C0.1713 192.037 0.329503 232.352 0.434972 232.642C0.54044 232.959 0.935948 233.354 1.30509 233.512C2.72892 234.171 11.6147 234.382 27.6195 234.198C36.3207 234.092 75.2914 233.908 114.236 233.829L185.032 233.67L186.535 232.906C187.352 232.51 189.039 231.403 190.279 230.454C194.497 227.29 206.02 215.635 208.868 211.654L210.08 209.94L210.16 140.99C210.212 92.817 210.16 71.7496 209.949 71.064C209.738 70.273 203.858 64.2877 178.229 38.7379C142.105 2.69282 142.104 2.69203 139.216 0.991129L139.153 0.953684ZM47.0785 48.0191C47.184 47.9136 54.8305 47.7554 64.0854 47.65C73.3139 47.5445 88.7651 47.4654 98.4154 47.439C113.84 47.3863 116.055 47.439 116.741 47.8082C117.189 48.0191 122.752 53.5035 129.133 59.9635C138.995 69.9566 146.667 77.3922 159.693 89.5738C161.011 90.7867 162.409 92.1578 162.804 92.606L163.542 93.397L163.49 129.916C163.49 150.007 163.384 171.048 163.305 176.691L163.147 186.948L105.271 186.895C67.9086 186.842 47.2895 186.737 47.1313 186.579C46.8149 186.262 46.7621 48.3355 47.0785 48.0191Z"
        fill="white" />
    <path
        d="M439.475 0.584543L435.652 0.42634C430.062 0.162668 269.749 0.00446519 255.168 0.24177C248.366 0.347239 242.248 0.531809 241.589 0.637278L240.403 0.848215L240.245 4.01228C239.612 15.8248 239.823 231.535 240.455 233.038C240.693 233.539 241.036 233.802 241.774 233.934C242.776 234.145 255.801 234.145 374.137 233.829C427.03 233.697 439.106 233.618 439.396 233.328C439.66 233.038 439.739 229.267 439.686 213.948C439.607 191.615 439.501 187.528 438.842 187.212C438.605 187.106 404.486 187.001 363.01 187.001H287.6L287.415 180.013C287.31 176.164 287.231 165.696 287.284 156.731L287.336 140.462L351.013 140.331C409.179 140.199 426.977 140.014 427.768 139.54C428.269 139.223 427.636 94.3726 427.109 93.8717C427.003 93.7398 395.653 93.608 357.473 93.5289C301.153 93.4234 287.969 93.3443 287.679 93.0543C287.415 92.7906 287.31 88.2027 287.231 70.4312C287.178 58.1177 287.257 48.0191 287.363 47.9136C287.495 47.7818 319.399 47.5972 358.264 47.5181C424.736 47.3336 438.816 47.2017 439.29 46.7535C439.396 46.648 439.475 36.2066 439.475 23.5767V0.584543Z"
        fill="white" />
    <path
        d="M486.804 11.5269C481.452 8.23103 471.748 2.43025 470.799 1.95564C470.325 1.69197 469.85 1.50739 469.692 1.50739C469.191 1.50739 469.112 6.8863 469.191 32.2252C469.27 55.7974 469.296 58.1177 469.718 58.6715C470.377 59.6207 473.04 61.5191 477.707 64.3931C480.028 65.817 483.35 67.8736 485.09 69.0074C486.83 70.1148 489.81 71.9605 491.682 73.0943C496.059 75.731 500.357 78.4468 508.293 83.5093C511.747 85.7242 514.964 87.7281 515.413 87.9918C517.733 89.3101 531.523 97.8795 537.561 101.782C543.599 105.684 550.718 110.193 554.014 112.25C555.939 113.462 558.47 115.255 559.604 116.231L561.687 118.024L560.289 118.789C557.125 120.529 554.7 122.005 549.189 125.433C545.972 127.411 541.648 130.1 539.539 131.419C532.419 135.822 525.195 140.331 519.499 143.943L518.778 144.395C515.732 146.306 511.758 148.798 509.612 150.139C508.344 150.931 506.408 152.156 504.379 153.44L504.332 153.47C502.661 154.527 500.93 155.622 499.46 156.546C491.946 161.319 486.91 164.483 479.289 169.203C475.967 171.286 472.381 173.606 471.353 174.371L469.454 175.742L469.27 183.494C469.164 187.739 469.138 200.29 469.191 211.39C469.323 231.166 469.428 233.539 470.166 233.539C470.272 233.539 472.091 232.431 474.174 231.087C476.257 229.742 481.425 226.499 485.618 223.915C498.564 215.952 502.888 213.262 506.579 210.863C508.531 209.597 512.644 207.04 515.676 205.194C518.735 203.348 522.637 200.922 524.377 199.789C527.858 197.547 528.754 196.994 532.683 194.647C534.133 193.777 537.034 191.984 539.09 190.666C541.147 189.347 544.68 187.159 546.921 185.814C549.163 184.469 553.039 182.044 555.491 180.462L556.232 179.988L556.237 179.985L556.256 179.973C558.505 178.537 560.774 177.088 561.555 176.638C563.717 175.373 573.183 169.466 575.846 167.726C577.059 166.935 578.087 166.302 578.14 166.302C578.219 166.302 579.907 165.274 581.911 164.008C582.412 163.698 582.938 163.372 583.46 163.047C583.907 162.769 584.352 162.493 584.775 162.229C585.831 161.572 586.755 160.997 587.263 160.686C588.212 160.106 589.821 159.078 590.823 158.392C591.851 157.707 593.908 156.415 595.411 155.518C598.311 153.778 602.846 150.957 607.249 148.135C608.752 147.186 610.888 145.841 611.996 145.182C614.632 143.627 620.855 139.724 624.705 137.219C626.366 136.138 630.584 133.502 634.065 131.366C637.545 129.23 641.052 127.015 641.843 126.488C642.634 125.961 645.007 124.431 647.117 123.139C653.313 119.29 654.789 118.288 654.948 117.839C655.317 116.917 649.806 113.041 635.647 104.208C626.761 98.6705 621.25 95.2427 616.926 92.5797C614.606 91.1558 609.201 87.8072 604.929 85.1177C602.8 83.7901 600.035 82.0628 597.294 80.3506C594.537 78.6283 591.804 76.9213 589.768 75.6519C583.598 71.8023 576.347 67.2672 572.234 64.6304C570.784 63.7076 559.103 56.5357 557.073 55.3228C556.071 54.7164 553.276 52.9761 550.876 51.4205C548.477 49.8912 544.39 47.3336 541.78 45.7252C535.32 41.7701 530.837 39.0015 521.081 32.8843C516.52 30.0103 511.484 26.8726 509.875 25.897C508.293 24.9215 504.365 22.4429 501.174 20.4127C497.984 18.356 494.24 16.0357 492.869 15.2183C491.497 14.4009 488.755 12.7398 486.804 11.5269Z"
        fill="white" />
</svg>