<svg width="1080" height="1080" viewBox="0 0 1080 1080" fill="none" xmlns="http://www.w3.org/2000/svg">
<path fill-rule="evenodd" clip-rule="evenodd" d="M685.862 43.0792C681.459 40.4852 680.668 40.3725 640.135 39.6958C584.247 38.6808 327.949 38.7935 231.979 39.9213C151.816 40.9363 92.8787 42.4025 91.7497 43.6431C90.169 45.1092 89.6045 288.375 90.2819 651.073C90.7335 860.392 91.411 1032.83 91.8626 1034.07C92.3142 1035.43 94.0078 1037.12 95.5885 1037.79C101.685 1040.61 139.735 1041.52 208.269 1040.73C245.528 1040.28 412.403 1039.49 579.166 1039.15L882.319 1038.47L888.755 1035.2C892.255 1033.51 899.481 1028.77 904.787 1024.71C922.852 1011.18 972.192 961.33 984.386 944.3L989.58 936.969L989.919 642.051C990.144 436.003 989.919 345.892 989.015 342.96C988.112 339.576 962.934 313.975 853.189 204.692C698.505 50.5179 698.5 50.5145 686.134 43.2393L685.862 43.0792ZM291.594 244.391C292.045 243.939 324.788 243.263 364.418 242.812C403.935 242.361 470.098 242.022 511.422 241.909C577.472 241.684 586.956 241.909 589.892 243.488C591.811 244.391 615.634 267.849 642.958 295.48C685.185 338.223 718.04 370.027 773.816 422.131C779.461 427.319 785.445 433.183 787.139 435.101L790.3 438.484L790.075 594.684C790.075 680.622 789.623 770.62 789.284 794.754L788.607 838.626L540.778 838.4C380.79 838.175 292.497 837.723 291.819 837.047C290.465 835.693 290.239 245.744 291.594 244.391Z" fill="white"/>
</svg>
